<svg width="27" height="32" viewBox="0 0 27 32" fill="none" xmlns="http://www.w3.org/2000/svg">
<path fill-rule="evenodd" clip-rule="evenodd" d="M18.5499 15.5737C18.5499 15.2639 18.4489 14.9668 18.2689 14.7478C18.089 14.5287 17.845 14.4057 17.5905 14.4057H3.55321L6.06183 11.7893C6.15759 11.6895 6.23626 11.5677 6.29336 11.4309C6.35045 11.2941 6.38485 11.1449 6.39459 10.9919C6.40433 10.8389 6.38922 10.6851 6.35013 10.5392C6.31103 10.3933 6.24871 10.2582 6.16673 10.1416C6.08475 10.0251 5.98471 9.92928 5.87233 9.85977C5.75994 9.79026 5.63741 9.74838 5.51173 9.73653C5.38605 9.72467 5.25968 9.74306 5.13984 9.79066C5.02 9.83825 4.90903 9.91412 4.81328 10.0139L0.335879 14.686C0.230552 14.7956 0.145988 14.9318 0.0880058 15.085C0.0300238 15.2383 0 15.405 0 15.5737C0 15.7424 0.0300238 15.9091 0.0880058 16.0624C0.145988 16.2156 0.230552 16.3517 0.335879 16.4614L4.81328 21.1334C5.00667 21.335 5.25791 21.4348 5.51173 21.4108C5.76555 21.3869 6.00116 21.2412 6.16673 21.0057C6.3323 20.7703 6.41426 20.4645 6.39459 20.1555C6.37492 19.8465 6.25522 19.5596 6.06183 19.3581L3.55449 16.7417H17.5905C17.845 16.7417 18.089 16.6186 18.2689 16.3996C18.4489 16.1806 18.5499 15.8835 18.5499 15.5737Z" fill="#FF0D00"/>
<path d="M9.91504 9.34414C9.91504 10.4374 9.91504 10.984 10.1312 11.378C10.2243 11.5475 10.3439 11.693 10.483 11.8063C10.8067 12.0695 11.2557 12.0695 12.1537 12.0695H17.5906C18.354 12.0695 19.0861 12.4387 19.6259 13.0958C20.1657 13.753 20.4689 14.6442 20.4689 15.5736C20.4689 16.5029 20.1657 17.3942 19.6259 18.0513C19.0861 18.7084 18.354 19.0776 17.5906 19.0776H12.1537C11.2557 19.0776 10.8067 19.0776 10.483 19.3393C10.3437 19.4531 10.2242 19.5991 10.1312 19.7691C9.91504 20.1631 9.91504 20.7097 9.91504 21.803C9.91504 26.2072 9.91504 28.4109 11.0395 29.7782C12.1627 31.1471 13.9716 31.1471 17.5893 31.1471H18.8686C22.4889 31.1471 24.2964 31.1471 25.4209 29.7782C26.5454 28.4109 26.5454 26.2072 26.5454 21.803V9.34414C26.5454 4.93993 26.5454 2.73627 25.4209 1.36892C24.2964 -9.28257e-08 22.4876 0 18.8698 0H17.5906C13.9716 0 12.1627 -9.28257e-08 11.0395 1.36892C9.91504 2.73627 9.91504 4.93993 9.91504 9.34414Z" fill="#FF0D00"/>
</svg>
